# xmcd
#
# Track frame offsets: 
#        150
#        11858
#        25015
#        39228
#        64458
#        77624
#        102042
#        115571
#        137136
#        154107
#        171400
#        181906
#        192860
#        220525
#        233123
#        244402
#        261159
#        275830
#
# Disc length: 3966 seconds
#
# Revision: 0
# Processed by: cddbd v1.5.2PL0 Copyright (c) Steve Scherf et al.
# Submitted via: ExactAudioCopy v0.95b2
#
DISCID=f50f7c12
DTITLE=Various Artist - Chasin' The Blues
DYEAR=2005
DGENRE=Blues
TTITLE0=Don't Start Me To Talkin' - Sonny Boy Williamson
TTITLE1=Devil's Jump - John Lee Hooker
TTITLE2=Sliding Delta - Mississippi John Hurt
TTITLE3=Little Red Rooster - Howlin' Wolf
TTITLE4=Country Boy Blues - Lowell Fulson
TTITLE5=No Rolling Blues - Jimmy Witherspoon
TTITLE6=Shake, Rattle and Roll - Big Joe Turner
TTITLE7=Blues From The Lowlands - Sonny Terry and Brownie McGhee
TTITLE8=It Must Have Been the Devil - Otis Spann
TTITLE9=Barrel House Blues - Johnny Otis
TTITLE10=I Can't Sleep Anymore - Lonnie Johnson
TTITLE11=Love In Vain - Robert Johnson
TTITLE12=Boom-Chick-A-Boogie - Joe Liggins
TTITLE13=When A Man's a Long Way From Home - Leadbelly
TTITLE14=Jinx Blues - Big Joe Williams 
TTITLE15=I Just Landed In Your Town - Memphis Slim
TTITLE16=Baby, Please Don't Go - Big Bill Broonzy
TTITLE17=Goin' Back Home - Lightnin' Hopkins
EXTD=
EXTT0=
EXTT1=
EXTT2=
EXTT3=
EXTT4=
EXTT5=
EXTT6=
EXTT7=
EXTT8=
EXTT9=
EXTT10=
EXTT11=
EXTT12=
EXTT13=
EXTT14=
EXTT15=
EXTT16=
EXTT17=
PLAYORDER=
